<svg xmlns="http://www.w3.org/2000/svg" viewBox="0 0 1200 800" role="img" aria-label="Global flows">
  <defs>
    <linearGradient id="g" x1="0" y1="0" x2="1" y2="1">
      <stop offset="0%" stop-color="#0c0f14"/>
      <stop offset="100%" stop-color="#151b24"/>
    </linearGradient>
    <radialGradient id="glow" cx="80%" cy="20%" r="55%">
      <stop offset="0%" stop-color="#c4a574" stop-opacity="0.18"/>
      <stop offset="100%" stop-color="#c4a574" stop-opacity="0"/>
    </radialGradient>
  </defs>
  <rect width="1200" height="800" fill="url(#g)"/>
  <rect width="1200" height="800" fill="url(#glow)"/>
  <rect x="0" y="0" width="8" height="800" fill="#c4a574"/>

  <text x="48" y="72" fill="#9a9284" font-family="ui-sans-serif" font-size="22" letter-spacing="4">MACRO</text>
  <text x="48" y="150" fill="#f3efe6" font-family="Georgia,serif" font-size="44" font-weight="700">Global flows &amp;</text>
  <text x="48" y="210" fill="#f3efe6" font-family="Georgia,serif" font-size="44" font-weight="700">balance of payments</text>
  <!-- flow arrows -->
  <circle cx="600" cy="480" r="90" fill="#141a22" stroke="#c4a574" stroke-width="3"/>
  <text x="600" y="490" text-anchor="middle" fill="#f3efe6" font-size="22" font-weight="700">US</text>
  
  <circle cx="220" cy="360" r="50" fill="#141a22" stroke="#2a3340" stroke-width="2"/>
  <text x="220" y="366" text-anchor="middle" fill="#9a9284" font-size="16">JP</text>
  <line x1="353.0" y1="402.0" x2="467.0" y2="438.0" stroke="#6a8fa8" stroke-width="2"/>
  
  <circle cx="980" cy="360" r="50" fill="#141a22" stroke="#2a3340" stroke-width="2"/>
  <text x="980" y="366" text-anchor="middle" fill="#9a9284" font-size="16">EU</text>
  <line x1="847.0" y1="402.0" x2="733.0" y2="438.0" stroke="#6a8fa8" stroke-width="2"/>
  
  <circle cx="300" cy="640" r="50" fill="#141a22" stroke="#2a3340" stroke-width="2"/>
  <text x="300" y="646" text-anchor="middle" fill="#9a9284" font-size="16">EM</text>
  <line x1="405.0" y1="584.0" x2="495.0" y2="536.0" stroke="#6a8fa8" stroke-width="2"/>
  
  <circle cx="900" cy="640" r="50" fill="#141a22" stroke="#2a3340" stroke-width="2"/>
  <text x="900" y="646" text-anchor="middle" fill="#9a9284" font-size="16">CN</text>
  <line x1="795.0" y1="584.0" x2="705.0" y2="536.0" stroke="#6a8fa8" stroke-width="2"/>
  

</svg>
